<svg width="24" height="24" viewBox="0 0 24 24" fill="none" xmlns="http://www.w3.org/2000/svg">
<path d="M0 12C0 5.3726 5.3726 0 12 0C18.6274 0 24 5.3726 24 12C24 18.6274 18.6274 24 12 24C5.3726 24 0 18.6274 0 12Z" fill="#4E4B66"></path>
<path d="M12 7.70664C13.3145 7.70664 14.2011 8.27445 14.7067 8.7489L16.6823 6.82C15.4689 5.69219 13.89 5 12 5C9.26228 5 6.89783 6.57109 5.74673 8.85774L8.01002 10.6155C8.57783 8.92774 10.1489 7.70664 12 7.70664Z" fill="#FAFBFC"></path>
<path d="M18.72 12.1557C18.72 11.5802 18.6733 11.1602 18.5722 10.7246H12V13.3223H15.8578C15.78 13.9679 15.36 14.9402 14.4266 15.5934L16.6355 17.3046C17.9578 16.0834 18.72 14.2868 18.72 12.1557Z" fill="#FAFBFC"></path>
<path d="M8.01781 13.3846C7.87 12.9491 7.78445 12.4824 7.78445 12.0002C7.78445 11.5179 7.87 11.0513 8.01 10.6157L5.74664 8.85791C5.27226 9.80681 5 10.8724 5 12.0002C5 13.1279 5.27226 14.1935 5.74664 15.1424L8.01781 13.3846Z" fill="#FAFBFC"></path>
<path d="M11.9998 19.0003C13.8898 19.0003 15.4764 18.3781 16.6353 17.3048L14.4264 15.5937C13.8353 16.0059 13.042 16.2937 11.9998 16.2937C10.1487 16.2937 8.5776 15.0725 8.0176 13.3848L5.75424 15.1425C6.90534 17.4292 9.26198 19.0003 11.9998 19.0003Z" fill="#FAFBFC"></path>
</svg>
