<svg width="24" height="24" viewBox="0 0 24 24" fill="none" xmlns="http://www.w3.org/2000/svg">
<path d="M0 12C0 5.3726 5.3726 0 12 0C18.6274 0 24 5.3726 24 12C24 18.6274 18.6274 24 12 24C5.3726 24 0 18.6274 0 12Z" fill="#4E4B66"></path>
<mask id="mask0_41_2338" style="mask-type: alpha" maskUnits="userSpaceOnUse" x="0" y="0" width="24" height="24">
<path fill-rule="evenodd" clip-rule="evenodd" d="M0 12C0 5.3726 5.3726 0 12 0C18.6274 0 24 5.3726 24 12C24 18.6274 18.6274 24 12 24C5.3726 24 0 18.6274 0 12Z" fill="#B4B2C7"></path>
</mask>
<g mask="url('#mask0_41_2338')">
<path fill-rule="evenodd" clip-rule="evenodd" d="M12.0006 5C10.0995 5 9.86088 5.00831 9.11424 5.04227C8.36902 5.0764 7.86038 5.19436 7.41528 5.3675C6.95487 5.54627 6.56435 5.78542 6.17525 6.17468C5.78588 6.56372 5.54668 6.9543 5.3673 7.41454C5.19378 7.85975 5.07566 8.36856 5.04213 9.11351C5.00872 9.86015 4.99997 10.0989 4.99997 12C4.99997 13.9011 5.00845 14.1389 5.04224 14.8856C5.07653 15.6308 5.19449 16.1395 5.36747 16.5846C5.5464 17.0449 5.78555 17.4355 6.17481 17.8246C6.56375 18.214 6.95427 18.4537 7.4144 18.6325C7.85977 18.8056 8.36858 18.9236 9.11364 18.9577C9.86034 18.9917 10.0988 19 11.9997 19C13.9009 19 14.1388 18.9917 14.8855 18.9577C15.6306 18.9236 16.1399 18.8056 16.5853 18.6325C17.0456 18.4537 17.4355 18.214 17.8244 17.8246C18.2138 17.4355 18.453 17.0449 18.6324 16.5847C18.8045 16.1395 18.9226 15.6307 18.9576 14.8857C18.9911 14.1391 18.9999 13.9011 18.9999 12C18.9999 10.0989 18.9911 9.86031 18.9576 9.11367C18.9226 8.36845 18.8045 7.85975 18.6324 7.41471C18.453 6.9543 18.2138 6.56372 17.8244 6.17468C17.435 5.78531 17.0457 5.5461 16.5849 5.3675C16.1386 5.19436 15.6297 5.0764 14.8844 5.04227C14.1377 5.00831 13.9001 5 11.9984 5H12.0006ZM11.7671 6.26136H11.7673L12.0006 6.26141C13.8696 6.26141 14.0911 6.26814 14.8291 6.30166C15.5116 6.33289 15.8821 6.44691 16.1288 6.54272C16.4555 6.6696 16.6884 6.8213 16.9332 7.0663C17.1782 7.31129 17.3299 7.54464 17.4571 7.87129C17.5529 8.11776 17.6671 8.48816 17.6981 9.17065C17.7317 9.9086 17.739 10.1302 17.739 11.9984C17.739 13.8665 17.7317 14.0882 17.6981 14.8261C17.6669 15.5086 17.5529 15.879 17.4571 16.1255C17.3302 16.4521 17.1782 16.6848 16.9332 16.9296C16.6882 17.1746 16.4557 17.3263 16.1288 17.4532C15.8824 17.5494 15.5116 17.6632 14.8291 17.6943C14.0913 17.7279 13.8696 17.7352 12.0006 17.7352C10.1314 17.7352 9.90988 17.7279 9.17199 17.6943C8.4895 17.6628 8.11905 17.5488 7.87219 17.453C7.54549 17.3261 7.31214 17.1744 7.06714 16.9294C6.82214 16.6844 6.6705 16.4517 6.54335 16.1249C6.44754 15.8785 6.33335 15.508 6.30229 14.8255C6.26871 14.0876 6.26204 13.8659 6.26204 11.9967C6.26204 10.1273 6.26871 9.90685 6.30229 9.1689C6.33346 8.48641 6.44754 8.11601 6.54335 7.86927C6.67022 7.54257 6.82214 7.30927 7.06714 7.06427C7.31214 6.81927 7.54549 6.66757 7.87219 6.54043C8.11894 6.44418 8.4895 6.33043 9.17199 6.29904C9.81774 6.26989 10.068 6.26114 11.3726 6.25966V6.26141C11.4945 6.26125 11.6256 6.2613 11.7671 6.26136ZM14.8971 8.26345C14.8971 7.79954 15.2734 7.42373 15.7371 7.42373V7.42346C16.2009 7.42346 16.5771 7.7997 16.5771 8.26345C16.5771 8.7272 16.2009 9.10344 15.7371 9.10344C15.2734 9.10344 14.8971 8.7272 14.8971 8.26345ZM12.0004 8.4052C10.0153 8.40525 8.40577 10.0148 8.40577 12C8.40577 13.9852 10.0153 15.5941 12.0006 15.5941C13.9858 15.5941 15.5948 13.9852 15.5948 12C15.5948 10.0147 13.9857 8.4052 12.0004 8.4052ZM14.3339 12C14.3339 10.7112 13.2892 9.66667 12.0006 9.66667C10.7118 9.66667 9.66724 10.7112 9.66724 12C9.66724 13.2886 10.7118 14.3333 12.0006 14.3333C13.2892 14.3333 14.3339 13.2886 14.3339 12Z" fill="#FAFBFC"></path>
</g>
</svg>
