<svg width="247" height="79" viewBox="0 0 247 79" fill="none" xmlns="http://www.w3.org/2000/svg">
<rect width="52" height="52" rx="26" fill="white"></rect>
<path d="M30.7792 27.2173L31.3493 23.4634H27.7831V21.0284C27.7831 20.0012 28.2804 18.9993 29.8776 18.9993H31.5V15.8034C31.5 15.8034 30.0283 15.5498 28.6219 15.5498C25.6836 15.5498 23.7648 17.3481 23.7648 20.6023V23.4634H20.5V27.2173H23.7648V36.2925C24.4203 36.3965 25.0909 36.4498 25.774 36.4498C26.4571 36.4498 27.1276 36.3965 27.7831 36.2925V27.2173H30.7792Z" fill="#4E4B66"></path>
<rect x="65" y="27" width="52" height="52" rx="26" fill="white"></rect>
<g clip-path="url('#clip0_27_1236')">
<path d="M93.093 51.3155L101.283 42H99.3422L92.2308 50.0885L86.551 42H80L88.589 54.2313L80 64H81.9409L89.4507 55.4583L95.449 64H102L93.0925 51.3155H93.093ZM90.4347 54.339L89.5644 53.1211L82.6402 43.4296H85.6213L91.2092 51.2509L92.0795 52.4689L99.3431 62.6354H96.3621L90.4347 54.3395V54.339Z" fill="#FC653C"></path>
</g>
<rect x="130" y="27" width="52" height="52" rx="26" fill="white"></rect>
<g clip-path="url('#clip1_27_1236')">
<path d="M156 43.9825C158.939 43.9825 159.284 43.9956 160.445 44.048C161.52 44.0961 162.1 44.2751 162.489 44.4279C163.004 44.6288 163.371 44.8646 163.755 45.2489C164.14 45.6332 164.38 46 164.576 46.5153C164.725 46.9039 164.908 47.4847 164.956 48.559C165.009 49.7205 165.022 50.0655 165.022 53.0044C165.022 55.9432 165.009 56.2882 164.956 57.4498C164.908 58.524 164.729 59.1048 164.576 59.4935C164.376 60.0087 164.14 60.3755 163.755 60.7598C163.371 61.1441 163.004 61.3843 162.489 61.5808C162.1 61.7293 161.52 61.9127 160.445 61.9607C159.284 62.0131 158.939 62.0262 156 62.0262C153.061 62.0262 152.716 62.0131 151.555 61.9607C150.48 61.9127 149.9 61.7336 149.511 61.5808C148.996 61.3799 148.629 61.1441 148.245 60.7598C147.86 60.3755 147.62 60.0087 147.424 59.4935C147.275 59.1048 147.092 58.524 147.044 57.4498C146.991 56.2882 146.978 55.9432 146.978 53.0044C146.978 50.0655 146.991 49.7205 147.044 48.559C147.092 47.4847 147.271 46.9039 147.424 46.5153C147.624 46 147.86 45.6332 148.245 45.2489C148.629 44.8646 148.996 44.6245 149.511 44.4279C149.9 44.2795 150.48 44.0961 151.555 44.048C152.716 43.9913 153.066 43.9825 156 43.9825ZM156 42C153.013 42 152.638 42.0131 151.463 42.0655C150.293 42.1179 149.493 42.3057 148.795 42.5764C148.07 42.8559 147.459 43.2358 146.847 43.8472C146.236 44.4585 145.86 45.0742 145.576 45.7948C145.306 46.4934 145.118 47.2926 145.066 48.4672C145.013 49.6376 145 50.0131 145 53C145 55.9869 145.013 56.3624 145.066 57.5371C145.118 58.7074 145.306 59.5066 145.576 60.2096C145.856 60.9345 146.236 61.5459 146.847 62.1572C147.459 62.7686 148.074 63.1441 148.795 63.4279C149.493 63.6987 150.293 63.8865 151.467 63.9389C152.642 63.9913 153.013 64.0044 156.004 64.0044C158.996 64.0044 159.367 63.9913 160.541 63.9389C161.712 63.8865 162.511 63.6987 163.214 63.4279C163.939 63.1485 164.55 62.7686 165.162 62.1572C165.773 61.5459 166.148 60.9301 166.432 60.2096C166.703 59.5109 166.891 58.7118 166.943 57.5371C166.996 56.3624 167.009 55.9913 167.009 53C167.009 50.0087 166.996 49.6376 166.943 48.4629C166.891 47.2926 166.703 46.4934 166.432 45.7904C166.153 45.0655 165.773 44.4541 165.162 43.8428C164.55 43.2314 163.935 42.8559 163.214 42.5721C162.515 42.3013 161.716 42.1135 160.541 42.0611C159.362 42.0131 158.987 42 156 42Z" fill="#4E4B66"></path>
<path d="M156 43.9825C158.939 43.9825 159.284 43.9956 160.445 44.048C161.52 44.0961 162.1 44.2751 162.489 44.4279C163.004 44.6288 163.371 44.8646 163.755 45.2489C164.14 45.6332 164.38 46 164.576 46.5153C164.725 46.9039 164.908 47.4847 164.956 48.559C165.009 49.7205 165.022 50.0655 165.022 53.0044C165.022 55.9432 165.009 56.2882 164.956 57.4498C164.908 58.524 164.729 59.1048 164.576 59.4935C164.376 60.0087 164.14 60.3755 163.755 60.7598C163.371 61.1441 163.004 61.3843 162.489 61.5808C162.1 61.7293 161.52 61.9127 160.445 61.9607C159.284 62.0131 158.939 62.0262 156 62.0262C153.061 62.0262 152.716 62.0131 151.555 61.9607C150.48 61.9127 149.9 61.7336 149.511 61.5808C148.996 61.3799 148.629 61.1441 148.245 60.7598C147.86 60.3755 147.62 60.0087 147.424 59.4935C147.275 59.1048 147.092 58.524 147.044 57.4498C146.991 56.2882 146.978 55.9432 146.978 53.0044C146.978 50.0655 146.991 49.7205 147.044 48.559C147.092 47.4847 147.271 46.9039 147.424 46.5153C147.624 46 147.86 45.6332 148.245 45.2489C148.629 44.8646 148.996 44.6245 149.511 44.4279C149.9 44.2795 150.48 44.0961 151.555 44.048C152.716 43.9913 153.066 43.9825 156 43.9825Z" fill="#4E4B66"></path>
<path d="M156 47.354C152.882 47.354 150.349 49.8824 150.349 53.0047C150.349 56.1269 152.878 58.6553 156 58.6553C159.122 58.6553 161.651 56.1269 161.651 53.0047C161.651 49.8824 159.122 47.354 156 47.354ZM156 56.6684C153.974 56.6684 152.332 55.0265 152.332 53.0003C152.332 50.9741 153.974 49.3322 156 49.3322C158.026 49.3322 159.668 50.9741 159.668 53.0003C159.668 55.0265 158.026 56.6684 156 56.6684Z" fill="white"></path>
<path d="M161.873 48.4452C162.602 48.4452 163.192 47.8547 163.192 47.1264C163.192 46.3981 162.602 45.8076 161.873 45.8076C161.145 45.8076 160.555 46.3981 160.555 47.1264C160.555 47.8547 161.145 48.4452 161.873 48.4452Z" fill="white"></path>
</g>
<rect x="195" width="52" height="52" rx="26" fill="white"></rect>
<path d="M231.547 20.71C231.293 19.7677 230.55 19.0247 229.608 18.771C227.886 18.2998 221 18.2998 221 18.2998C221 18.2998 214.114 18.2998 212.392 18.7529C211.468 19.0066 210.707 19.7677 210.453 20.71C210 22.4316 210 26.0016 210 26.0016C210 26.0016 210 29.5897 210.453 31.2932C210.707 32.2355 211.45 32.9785 212.392 33.2322C214.132 33.7034 221 33.7034 221 33.7034C221 33.7034 227.886 33.7034 229.608 33.2503C230.55 32.9966 231.293 32.2536 231.547 31.3113C232 29.5897 232 26.0197 232 26.0197C232 26.0197 232.018 22.4316 231.547 20.71Z" fill="#4E4B66"></path>
<path d="M218.807 29.2995L224.534 26.0013L218.807 22.7031V29.2995Z" fill="white"></path>
<defs>
<clipPath id="clip0_27_1236">
<rect width="22" height="22" fill="white" transform="translate(80 42)"></rect>
</clipPath>
<clipPath id="clip1_27_1236">
<rect width="22" height="22" fill="white" transform="translate(145 42)"></rect>
</clipPath>
</defs>
</svg>
